<svg xmlns:dc="http://purl.org/dc/elements/1.1/"
  xmlns:cc="http://creativecommons.org/ns#"
  xmlns:rdf="http://www.w3.org/1999/02/22-rdf-syntax-ns#"
  xmlns:svg="http://www.w3.org/2000/svg"
  xmlns="http://www.w3.org/2000/svg"
  xmlns:sodipodi="http://sodipodi.sourceforge.net/DTD/sodipodi-0.dtd"
  xmlns:inkscape="http://www.inkscape.org/namespaces/inkscape" version="1.1" x="0px" y="0px" viewBox="0 0 644.14 143.07" xml:space="preserve" id="svg16" sodipodi:docname="Western_Union_Logo_2019.svg" inkscape:version="0.92.1 r15371">
  <sodipodi:namedview pagecolor="#ffffff" bordercolor="#666666" borderopacity="1" objecttolerance="10" gridtolerance="10" guidetolerance="10" inkscape:pageopacity="0" inkscape:pageshadow="2" inkscape:window-width="1920" inkscape:window-height="1001" id="namedview18" showgrid="false" inkscape:zoom="2.1361815" inkscape:cx="322.07001" inkscape:cy="71.535009" inkscape:window-x="-9" inkscape:window-y="-9" inkscape:window-maximized="1" inkscape:current-layer="svg16" />
  <rect style="opacity:0.98999999;fill:#000000;fill-opacity:1;fill-rule:nonzero;stroke:none;stroke-width:4.87240696;stroke-miterlimit:10;stroke-dasharray:none;stroke-opacity:1" id="rect24" width="644.14001" height="143.07001" x="0" y="-4.3447112e-006" />
  <path style="fill:#ffe500;fill-opacity:1" inkscape:connector-curvature="0" id="path4" d="m 197.54,89.120003 1.7,6.33 -0.81,0.41 c -1.9,0.91 -3.75,1.52 -6.6,1.52 -6.23,0 -10.09,-3.84 -10.09,-10.02 l -0.01,-18.6 h -6.4 v -6.39 h 6.4 v -9.17 l 7.68,-2.06 v 11.23 h 8.11 v 6.39 h -8.11 l 0.01,17.62 c 0,2.25 1.5,3.8 3.82,3.94 1.29,0.08 2.57,-0.3 3.7,-0.88 z m 189.04,-26.76 v 34.64 h 7.68 v -34.64 z m 48.93,17.32 c 0,10.09 -7.58,17.7 -17.64,17.7 -10.1,0 -17.71,-7.61 -17.71,-17.7 0,-10.09 7.61,-17.7 17.71,-17.7 10.06,0 17.64,7.61 17.64,17.7 z m -7.65,0 c 0,-6.09 -4.2,-10.51 -9.99,-10.51 -5.83,0 -10.06,4.42 -10.06,10.51 0,6.09 4.23,10.51 10.06,10.51 5.79,0 9.99,-4.42 9.99,-10.51 z m -92.82,-0.91 c 0,0 0.7,10.79 -11.1,10.79 -11.8,0 -11.09,-10.85 -11.09,-10.85 v -27.8 h -8.11 v 27.54 c 0,11.52 7.54,18.93 19.2,18.93 11.66,0 19.2,-7.41 19.2,-18.87 v -27.6 h -8.11 v 27.86 z m 55.38,-32.69 c -3.22,0 -5.83,2.61 -5.83,5.83 0,1.47 0.55,2.82 1.45,3.84 h 8.76 c 0.9,-1.03 1.45,-2.37 1.45,-3.84 0,-3.22 -2.61,-5.83 -5.83,-5.83 z m -133.74,15.97 c -2.31,0.3 -4.73,1.08 -6.89,2.81 v -2.5 0 0 h -7.68 v 34.64 h 7.68 v 0 -21.06 c 0,-0.71 0.12,-1.41 0.39,-2.07 0.66,-1.58 1.93,-3.24 3.79,-4.04 1.25,-0.54 2.44,-0.72 3.46,-0.72 v 0 c 1.11,0 2.74,0.18 3.88,0.77 v -7.4 c -0.01,0 -2.32,-0.73 -4.63,-0.43 z m -155.62,-11.13 -8.78,32.78 -10.54,-32.78 h -8.26 l -10.54,32.78 -8.79,-32.79 h -8.08 l 12.36,46.09 h 8.08 l 11.11,-34.18 11.1,34.18 v 0 h 8.08 l 12.35,-46.08 z m 24.83,46.46 c -10.1,-0.03 -17.66,-7.59 -17.68,-17.69 0,-2.23 0.38,-4.47 1.16,-6.56 1.19,-3.16 3.3,-5.95 6.05,-7.92 3,-2.14 6.68,-3.23 10.35,-3.23 4.86,0 8.79,1.69 11.62,4.72 1.94,2.09 3.25,4.74 4.01,7.47 0.68,2.45 0.75,4.91 0.75,7.44 h -26.36 l 0.15,0.75 c 0.97,4.65 4.95,7.77 9.95,7.78 4.32,-0.01 7.15,-2.04 8.64,-3.54 l 5.26,4.9 c -3.19,3.65 -8.39,5.87 -13.9,5.88 z m 8.37,-21.33 c -0.34,-2.23 -1.41,-4.29 -3.19,-5.61 -1.93,-1.43 -3.81,-1.7 -5.85,-1.7 -2.83,0 -5.4,1.34 -7.18,3.41 -1.42,1.64 -2.06,3.89 -2.06,3.89 h 18.28 z m 85.69,21.33 c -10.1,-0.03 -17.66,-7.59 -17.68,-17.69 0,-2.23 0.38,-4.47 1.16,-6.56 1.19,-3.16 3.3,-5.95 6.05,-7.92 3,-2.14 6.68,-3.23 10.35,-3.23 4.86,0 8.79,1.69 11.62,4.72 1.94,2.09 3.25,4.74 4.01,7.47 0.68,2.45 0.75,4.91 0.75,7.44 h -26.36 l 0.15,0.75 c 0.97,4.65 4.95,7.77 9.95,7.78 4.32,-0.01 7.15,-2.04 8.64,-3.54 l 5.26,4.9 c -3.2,3.65 -8.39,5.87 -13.9,5.88 z m 8.36,-21.33 c -0.34,-2.23 -1.41,-4.29 -3.19,-5.61 -1.93,-1.43 -3.81,-1.7 -5.85,-1.7 -2.83,0 -5.4,1.34 -7.18,3.41 -1.42,1.64 -2.06,3.89 -2.06,3.89 h 18.28 z m -67.27,-0.25 c -3.34,-0.79 -5.7,-1.64 -5.74,-3.61 -0.05,-2.64 2.27,-3.44 6.29,-3.44 1.66,0 6.93,-0.01 6.93,-0.01 v -6.39 l -6.86,0.01 c -6.03,0 -13.61,1.3 -13.61,10.3 0.07,4.04 2.82,7.17 7.94,8.78 1.18,0.37 2.38,0.65 3.54,0.93 3.56,0.85 6.63,1.71 6.67,4.36 0.04,2.4 -3.16,3.84 -5.84,3.89 -4.72,0 -7.84,-2.72 -8.82,-3.71 l -5.01,4.67 c 0,0 4.38,5.78 14.13,5.78 6.39,0 12.92,-4.14 12.81,-10.9 -0.12,-6.69 -6.35,-9.21 -12.43,-10.66 z m 205.26,-13.82 c -2.72,0 -5.9,0.46 -8.68,2.49 v -2.11 h -7.68 v 34.64 0 h 7.68 v 0 -20.92 c 0,-3.09 2.48,-6.79 7.35,-6.79 4.27,0 7.15,2.9 7.15,7.22 v 20.49 h 7.68 v -20.99 c 0,-8.58 -5.5,-14.03 -13.5,-14.03 z m -81.84,0 c -2.72,0 -5.9,0.46 -8.68,2.49 v -2.11 h -7.68 v 34.64 0 h 7.68 v 0 -20.92 c 0,-3.09 2.48,-6.79 7.35,-6.79 4.27,0 7.15,2.9 7.15,7.22 v 20.49 h 7.68 v -20.99 c 0,-8.58 -5.5,-14.03 -13.5,-14.03 z m 173.31,0 c -2.72,0 -5.9,0.46 -8.68,2.49 v -2.11 h -7.68 v 34.64 0 h 7.68 v 0 -20.92 c 0,-3.09 2.48,-6.79 7.35,-6.79 4.27,0 7.15,2.9 7.15,7.22 v 20.49 h 7.68 v -20.99 c 0,-8.58 -5.49,-14.03 -13.5,-14.03 z" class="st0" />
  <path class="st0" d="m 559.16,50.920003 -12.54,46.08 h -9.1 l -9.5,-30.55 -9.5,30.55 h -9.04 l -12.66,-46.08 h 9.86 l 7.75,29.16 9.06,-29.16 h 9.12 l 9.22,29.38 7.58,-29.38 z m 28.97,0 v 28.38 0.07 c 0,0.04 0.2,3.9 -2.29,6.55 -1.62,1.72 -4.05,2.59 -7.23,2.59 -3.18,0 -5.61,-0.87 -7.23,-2.59 -2.49,-2.65 -2.29,-6.51 -2.29,-6.55 v -28.45 H 565 l -5.84,21.46 v 6.67 c 0,5.68 1.84,10.49 5.32,13.92 3.48,3.42 8.36,5.23 14.13,5.23 5.76,0 10.65,-1.81 14.13,-5.23 3.48,-3.42 5.32,-8.24 5.32,-13.92 v -28.13 z" id="path6" inkscape:connector-curvature="0" style="fill:#ffe500;fill-opacity:1" />
  <path class="st1" d="m 491.62,97.000003 -12.66,-46.08 h 3.23 l 12.67,46.08 z m 12.17,0 -12.66,-46.08 h -3.23 l 12.65,46.08 z" id="path8" inkscape:connector-curvature="0" style="fill:#ffffff" />
  <g id="GUIDES" class="st2" style="display:none" transform="translate(0,2.6757812e-6)">
    <g class="st3" id="g13" style="display:inline" />
  </g>
</svg>